<svg version="1" xmlns="http://www.w3.org/2000/svg" viewBox="0 0 160 20"><switch><g><path fill="#EE3E24" d="M139.3 15.6c0-1.4-1.1-2.5-2.5-2.5s-2.5 1.1-2.5 2.5 1.1 2.5 2.5 2.5 2.5-1.1 2.5-2.5zM139.3 9.3c0-1.4-1.1-2.5-2.5-2.5s-2.5 1.1-2.5 2.5 1.1 2.5 2.5 2.5c1.4-.1 2.5-1.2 2.5-2.5zM145.7 9.3c0-1.4-1.1-2.5-2.5-2.5s-2.5 1.1-2.5 2.5 1.1 2.5 2.5 2.5c1.4-.1 2.5-1.2 2.5-2.5zM145.7 2.9c0-1.4-1.1-2.5-2.5-2.5s-2.5 1.1-2.5 2.5 1.1 2.5 2.5 2.5 2.5-1.1 2.5-2.5z"/><g><path fill="#FFF" d="M143.2 13.1c1.4 0 2.5 1.1 2.5 2.5s-1.1 2.5-2.5 2.5-2.5-1.1-2.5-2.5 1.1-2.5 2.5-2.5zM149.6 13.1c1.4 0 2.5 1.1 2.5 2.5s-1.1 2.5-2.5 2.5-2.5-1.1-2.5-2.5 1.1-2.5 2.5-2.5zM149.6 6.8c1.4 0 2.5 1.1 2.5 2.5s-1.1 2.5-2.5 2.5-2.5-1.1-2.5-2.5 1.1-2.5 2.5-2.5zM155.9 6.8c1.4 0 2.5 1.1 2.5 2.5s-1.1 2.5-2.5 2.5-2.5-1.1-2.5-2.5 1.1-2.5 2.5-2.5z"/></g><g><path fill="#FFF" d="M36.2 5.4h2.7l-7.2 6.4 7.2 6.4h-2.6l-6.4-5.5h-.2v5.5h-1.8V2h1.8v8.8h.2l6.3-5.4zM49.5 5.4h2.7L45 11.8l7.2 6.4h-2.6L43 12.6h-.2v5.5H41V2h1.8v8.8h.2l6.5-5.4z"/><g fill="#FFF"><path d="M80.5.8h1.8v14.6c0 .2.1.4.3.6.2.2.4.3.6.3h2.2v1.8h-2.2a2.732 2.732 0 0 1-2.7-2.7V.8zM97.3 5.1c.8 0 1.4.3 1.9.8s.8 1.2.8 1.9v10.3H89.6a2.732 2.732 0 0 1-2.7-2.7v-4.7h11.2V7.8c0-.2-.1-.4-.3-.6-.2-.2-.4-.3-.6-.3H86.9V5.1h10.4zm.8 11.2v-3.8h-9.4v2.9c0 .2.1.4.3.6.2.2.4.3.6.3h8.5zM112.1 5.1a2.732 2.732 0 0 1 2.7 2.7v7.6c0 .8-.3 1.4-.8 1.9s-1.2.8-1.9.8h-10.4V.8h1.8v4.3h8.6zm.8 10.3V7.8c0-.2-.1-.4-.3-.6-.2-.2-.4-.3-.6-.3h-7.7c-.2 0-.4.1-.6.3-.2.2-.3.4-.3.6v7.6c0 .2.1.4.3.6.2.2.4.3.6.3h7.7c.2 0 .4-.1.6-.3.3-.1.3-.3.3-.6zM129.3 7.8V8h-1.8v-.2c0-.2-.1-.4-.3-.6-.2-.2-.4-.3-.6-.3H119c-.2 0-.4.1-.6.3-.2.2-.3.4-.3.6v2c0 .2.1.4.3.6.2.2.4.3.6.3h7.7c.8 0 1.4.3 1.9.8s.8 1.2.8 1.9v2c0 .8-.3 1.4-.8 1.9s-1.2.8-1.9.8H119a2.732 2.732 0 0 1-2.7-2.7v-.2h1.8v.2c0 .2.1.4.3.6.2.2.4.3.6.3h7.7c.2 0 .4-.1.6-.3.2-.2.3-.4.3-.6v-2c0-.2-.1-.4-.3-.6-.2-.2-.4-.3-.6-.3H119a2.732 2.732 0 0 1-2.7-2.7v-2c0-.8.3-1.4.8-1.9s1.2-.8 1.9-.8h7.7c.8 0 1.4.3 1.9.8s.7 1.1.7 1.9z"/></g><path fill="#FFF" d="M4 5.4h7.1v1.8H4c-.2 0-.4.1-.6.3-.1.1-.2.3-.2.5v10.1H1.4V8c0-.7.3-1.4.8-1.9s1.1-.7 1.8-.7zM15.1 5.4h7.6c.7 0 1.4.3 1.9.8s.8 1.1.8 1.9v7.4a2.732 2.732 0 0 1-2.7 2.7h-7.6c-.7 0-1.4-.3-1.9-.8s-.8-1.1-.8-1.9V8c0-.7.3-1.4.8-1.9.6-.5 1.2-.7 1.9-.7zm7.7 1.8h-7.6c-.2 0-.4.1-.6.3-.2.2-.3.4-.3.6v7.4c0 .2.1.4.3.6.2.2.4.3.6.3h7.6c.2 0 .4-.1.6-.3.2-.2.3-.4.3-.6V8c0-.2-.1-.4-.3-.6-.2-.2-.4-.2-.6-.2zM71.1 5.4h7.1v1.8h-7.1c-.2 0-.4.1-.6.3-.2.2-.3.4-.3.6v10.1h-1.8V8c0-.7.3-1.4.8-1.9s1.1-.7 1.9-.7zM66 7.6c0-.6-.2-1.1-.7-1.6-.4-.4-1-.7-1.6-.7h-10v1.8h10c.1 0 .2 0 .3.1.1.1.1.2.1.3v2.8c0 .1 0 .2-.1.3-.1.1-.2.1-.3.1H55v1.7h8.7c.1 0 .2 0 .3.1.1.1.1.2.1.3v2.8c0 .1 0 .2-.1.3-.1.1-.2.1-.3.1h-10v1.8h10c.6 0 1.2-.2 1.6-.7.4-.4.7-1 .7-1.6V13c0-.5-.1-.9-.4-1.2.2-.4.4-.8.4-1.2v-3z"/></g></g></switch></svg>